# AST/ASF file generated using VICON BodyLanguage
# -----------------------------------------------
:version 1.10
:name VICON
:units
  mass 1.0
  length 0.45
  angle deg
:documentation
   .ast/.asf automatically generated from VICON data using
   VICON BodyBuilder and BodyLanguage model FoxedUp or BRILLIANT.MOD
:root
   order TX TY TZ RX RY RZ
   axis XYZ
   position 0 0 0  
   orientation 0 0 0 
:bonedata
  begin
     id 1 
     name lhipjoint
     direction 0.692814 -0.645514 0.321437 
     length 2.38754 
     axis 0 0 0  XYZ
  end
  begin
     id 2 
     name lfemur
     direction 0.34202 -0.939693 0  
     length 6.41921  
     axis 0 0 20  XYZ
    dof rx ry rz
    limits (-160.0 20.0)
           (-70.0 70.0)
           (-60.0 70.0)
  end
  begin
     id 3 
     name ltibia
     direction 0.34202 -0.939693 0   
     length 6.98247   
     axis 0 0 20   XYZ
    dof rx
    limits (-10.0 170.0)
  end
  begin
     id 4 
     name lfoot
     direction 0.0947186 -0.260237 0.960888   
     length 1.83034   
     axis -90 7.62852e-016 20   XYZ
    dof rx rz
    limits (-45.0 90.0)
           (-70.0 20.0)
  end
  begin
     id 5 
     name ltoes
     direction 1.53538e-011 -4.21952e-011 1   
     length 0.920499   
     axis -90 7.62852e-016 20   XYZ
    dof rx
    limits (-90.0 20.0)
  end
  begin
     id 6 
     name rhipjoint
     direction -0.631686 -0.693949 0.345555   
     length 2.2209  
     axis 0 0 0  XYZ 
  end
  begin
     id 7 
     name rfemur
     direction -0.34202 -0.939693 0   
     length 6.49542   
     axis 0 0 -20   XYZ
    dof rx ry rz
    limits (-160.0 20.0)
           (-70.0 70.0)
           (-70.0 60.0)
  end
  begin
     id 8 
     name rtibia
     direction -0.34202 -0.939693 0   
     length 7.21712   
     axis 0 0 -20   XYZ
    dof rx
    limits (-10.0 170.0)
 end
 begin
     id 9 
     name rfoot
     direction -0.0825378 -0.226771 0.970444   
     length 1.89724  
     axis -90 -7.62852e-016 -20   XYZ
    dof rx rz
    limits (-45.0 90.0)
           (-20.0 70.0)
  end
  begin
     id 10 
     name rtoes
     direction -1.53515e-011 -4.22016e-011 1   
     length 0.955868   
     axis -90 -7.62852e-016 -20   XYZ
    dof rx
    limits (-90.0 20.0)
  end
  begin
     id 11 
     name lowerback
     direction -0.0104711 0.984802 -0.173368   
     length 1.84931   
     axis 0 0 0   XYZ
    dof rx ry rz
    limits (-20.0 45.0)
           (-30.0 30.0)
           (-30.0 30.0)
  end
  begin
     id 12 
     name upperback
     direction -0.00286433 0.999996 -0.000382853   
     length 1.85768   
     axis 0 0 0   XYZ
    dof rx ry rz
    limits (-20.0 45.0)
           (-30.0 30.0)
           (-30.0 30.0)
  end
  begin
     id 13 
     name thorax
     direction 0.00167534 0.996793 0.0800069   
     length 1.92   
     axis 0 0 0   XYZ
    dof rx ry rz
    limits (-20.0 45.0)
           (-30.0 30.0)
           (-30.0 30.0)
  end
  begin
     id 14 
     name lowerneck
     direction -0.0672491 0.995415 0.068018   
     length 1.58923   
     axis 0 0 0   XYZ
    dof rx ry rz
    limits (-20.0 45.0)
           (-30.0 30.0)
           (-30.0 30.0)
  end
  begin
     id 15 
     name upperneck
     direction 0.0958019 0.982476 -0.159884   
     length 1.60189   
     axis 0 0 0   XYZ
    dof rx ry rz
    limits (-20.0 45.0)
           (-30.0 30.0)
           (-30.0 30.0)
  end
  begin
     id 16
     name head
     direction 0.032989 0.997338 -0.0650226  
     length 1.61681  
     axis 0 0 0   XYZ
    dof rx ry rz
    limits (-20.0 45.0)
           (-30.0 30.0)
           (-30.0 30.0)
  end
  begin
     id 17 
     name lclavicle
     direction 0.954279 0.298875 -0.00496069  
     length 2.99449  
     axis 0 0 0   XYZ
    dof ry rz
    limits (-20.0 10.0)
           (0.0 20.0)
  end
  begin
     id 18 
     name lhumerus
     direction 1 -4.48985e-011 -4.2057e-027   
     length 4.79185   
     axis 180 -30 -90   XYZ
    dof rx ry rz
    limits (-60.0 90.0)
           (-90.0 90.0)
           (-90.0 90.0)
  end
  begin
     id 19
     name lradius
     direction 1 -4.48945e-011 1.15441e-028   
     length 2.65553   
     axis 180 -30 -90   XYZ
    dof rx
    limits (-10.0 170.0)
  end
  begin
     id 20
     name lwrist
     direction 1 -4.4899e-011 4.8894e-028   
     length 1.32777   
     axis -2.56392e-016 90 90   XYZ
    dof ry
    limits (-180.0 0.0)
 end
  begin
     id 21 
     name lhand
     direction 1 -4.48908e-011 9.7788e-028   
     length 0.743904   
     axis -6.23971e-016 90 90   XYZ
    dof rx rz
    limits (-90.0 90.0)
           (-45.0 45.0)
  end
  begin
     id 22 
     name lfingers
     direction 1 -4.49068e-011 1.95576e-027   
     length 0.599754   
     axis -1.24794e-015 90 90   XYZ
    dof rx
    limits (0.0 90.0)
  end
  begin
     id 23
     name lthumb
     direction 0.707107 -6.34883e-011 0.707107   
     length 0.861131   
     axis -90 45 2.85299e-015   XYZ
    dof rx rz
    limits (-45.0 45.0)
           (-45.0 45.0)
  end
  begin
     id 24 
     name rclavicle
     direction -0.957921 0.286916 0.00811568   
     length 3.06817  
     axis 0 0 0   XYZ 
    dof ry rz
    limits (-10.0 20.0)
           (-20.0 0.0)
  end
  begin
     id 25 
     name rhumerus
     direction -1 -4.48971e-011 -3.07942e-027  
     length 4.77254   
     axis 180 30 90   XYZ
    dof rx ry rz
    limits (-90.0 60.0)
           (-90.0 90.0)
           (-90.0 90.0)
  end
  begin
     id 26 
     name rradius
     direction -1 -4.48957e-011 -9.6815e-028   
     length 2.75995   
     axis 180 30 90   XYZ
    dof rx
    limits (-10.0 170.0)
  end
  begin
     id 27 
     name rwrist
     direction -1 -4.48979e-011 4.8894e-028   
     length 1.37997   
     axis -2.56392e-016 -90 -90   XYZ
    dof ry
    limits (-180.0 0.0)
  end
  begin
     id 28
     name rhand
     direction -1 -4.48906e-011 9.7788e-028   
     length 0.701619   
     axis -6.23971e-016 -90 -90   XYZ
    dof rx rz
    limits (-90.0 90.0)
           (-45.0 45.0)
  end
  begin
     id 29
     name rfingers
     direction -1 -4.49018e-011 1.95576e-027   
     length 0.565663   
     axis -1.24794e-015 -90 -90   XYZ
    dof rx
    limits (0.0 90.0)
  end
  begin
     id 30
     name rthumb
     direction -0.707107 -6.34881e-011 0.707107   
     length 0.812183   
     axis -90 -45 -2.85299e-015   XYZ
    dof rx rz
    limits (-45.0 45.0)
           (-45.0 45.0)
  end
:hierarchy
  begin
    root lhipjoint rhipjoint lowerback
    lhipjoint lfemur
    lfemur ltibia
    ltibia lfoot
    lfoot ltoes
    rhipjoint rfemur
    rfemur rtibia
    rtibia rfoot
    rfoot rtoes
    lowerback upperback
    upperback thorax
    thorax lowerneck lclavicle rclavicle
    lowerneck upperneck
    upperneck head
    lclavicle lhumerus
    lhumerus lradius
    lradius lwrist
    lwrist lhand lthumb
    lhand lfingers
    rclavicle rhumerus
    rhumerus rradius
    rradius rwrist
    rwrist rhand rthumb
    rhand rfingers
  end

#!OML:ASF F:\VICON\USERDATA\INSTALL\rory3\rory3.ASF
:FULLY-SPECIFIED
:DEGREES
102
root 0.153936 16.1428 0.455999 0.182803 0.30242 -1.4972
lowerback 7.71342 -0.376755 -0.544742
upperback -2.05639 -0.583043 -0.386214
thorax -6.48115 -0.27336 -0.0205343
lowerneck -8.19871 -12.84 -16.9468
upperneck 26.0749 -17.8275 9.18397
head 12.3838 -8.82402 3.54164
rclavicle -3.84524e-015 4.37326e-015
rhumerus -38.1913 9.98719 -89.4151
rradius 32.3426
rwrist 5.62154
rhand -12.7155 12.4782
rfingers 7.12502
rthumb 13.3674 -17.073
lclavicle -3.84524e-015 4.37326e-015
lhumerus -39.8235 -19.7496 94.4823
lradius 51.4598
lwrist 5.82171
lhand -9.66971 12.7581
lfingers 7.12502
lthumb 16.3017 42.0929
rfemur 3.65679 10.817 19.3803
rtibia 9.87672
rfoot -10.4884 -11.8005
rtoes -3.72959
lfemur 8.20626 -11.8389 -16.028
ltibia -1.11319e-014
lfoot -5.36603 11.2449
ltoes -11.2901
103
root 0.153889 16.1442 0.449329 0.156752 0.245635 -1.53096
lowerback 7.74462 -0.366213 -0.525034
upperback -2.0369 -0.565788 -0.365773
thorax -6.47841 -0.265237 -0.0123643
lowerneck -8.17725 -12.8109 -16.9306
upperneck 26.0481 -17.7849 9.17509
head 12.3592 -8.80549 3.54602
rclavicle 5.49143e-015 -1.19271e-014
rhumerus -38.0346 9.94837 -89.4383
rradius 32.5468
rwrist 5.51894
rhand -12.9804 12.3803
rfingers 7.12502
rthumb 13.1121 -17.1875
lclavicle 5.49143e-015 -1.19271e-014
lhumerus -39.1983 -19.0674 94.0566
lradius 49.8311
lwrist 5.94113
lhand -9.65511 12.5603
lfingers 7.12502
lthumb 16.3157 41.8939
rfemur 3.68907 10.8882 19.4234
rtibia 9.79082
rfoot -10.4406 -11.8022
rtoes -3.72802
lfemur 8.21903 -11.7745 -15.9848
ltibia 3.33958e-014
lfoot -5.2949 11.2214
ltoes -11.5282
104
root 0.154874 16.1434 0.443685 0.120684 0.222076 -1.49583
lowerback 7.71863 -0.362169 -0.515515
upperback -1.96146 -0.560551 -0.396551
thorax -6.38419 -0.264005 -0.0509838
lowerneck -8.25511 -12.8008 -16.8926
upperneck 26.0632 -17.7701 9.19203
head 12.3759 -8.79016 3.54496
rclavicle -8.50115e-015 7.55382e-015
rhumerus -37.8201 9.93348 -89.4902
rradius 32.8038
rwrist 5.34639
rhand -13.1853 12.2648
rfingers 7.12502
rthumb 12.9145 -17.3156
lclavicle -8.50115e-015 7.55382e-015
lhumerus -38.498 -18.379 93.5463
lradius 48.2392
lwrist 5.97641
lhand -9.7086 12.542
lfingers 7.12502
lthumb 16.2642 41.8798
rfemur 3.67381 10.9267 19.39
rtibia 9.84953
rfoot -10.4425 -11.8344
rtoes -4.2095
lfemur 8.25066 -11.7425 -16.0305
ltibia -1.27222e-014
lfoot -5.24779 11.1946
ltoes -11.8466
105
root 0.155798 16.1435 0.437195 0.114239 0.224507 -1.39047
lowerback 7.73055 -0.370414 -0.570341
upperback -1.92262 -0.580301 -0.451463
thorax -6.35001 -0.272868 -0.0749785
lowerneck -8.32068 -12.7903 -16.8222
upperneck 26.0585 -17.7506 9.17511
head 12.3741 -8.774 3.52839
rclavicle -2.40095e-015 -4.37326e-015
rhumerus -37.6147 9.95262 -89.5609
rradius 33.0491
rwrist 5.20239
rhand -13.1471 12.1572
rfingers 7.12502
rthumb 12.9514 -17.4209
lclavicle -2.40095e-015 -4.37326e-015
lhumerus -37.898 -17.6245 93.0199
lradius 46.7431
lwrist 5.82389
lhand -9.63784 12.7019
lfingers 7.12502
lthumb 16.3324 42.0342
rfemur 3.54762 10.9395 19.2713
rtibia 10.0521
rfoot -10.5135 -11.8579
rtoes -4.21531
lfemur 8.22942 -11.7338 -16.147
ltibia 1.59028e-014
lfoot -5.27371 11.2035
ltoes -11.6714
106
root 0.156792 16.1441 0.431674 0.165012 0.228164 -1.21067
lowerback 7.70526 -0.36357 -0.751873
upperback -1.93809 -0.591695 -0.488651
thorax -6.35054 -0.272252 -0.0104253
lowerneck -8.30752 -12.774 -16.8345
upperneck 26.0559 -17.7259 9.17521
head 12.368 -8.76466 3.53595
rclavicle -1.55301e-017 -2.78299e-015
rhumerus -37.4946 10.0359 -89.6038
rradius 33.3372
rwrist 4.86293
rhand -12.943 12.2131
rfingers 7.12502
rthumb 13.1482 -17.3523
lclavicle -1.55301e-017 -2.78299e-015
lhumerus -37.3397 -16.8551 92.6022
lradius 45.1872
lwrist 5.71112
lhand -9.58993 13.0669
lfingers 7.12502
lthumb 16.3785 42.3954
rfemur 3.3691 10.9796 19.0552
rtibia 10.2549
rfoot -10.673 -11.8798
rtoes -3.55265
lfemur 8.1503 -11.722 -16.3355
ltibia -4.77083e-015
lfoot -5.26072 11.1903
ltoes -11.2305
107
root 0.156529 16.1463 0.425368 0.254992 0.253437 -1.06314
lowerback 7.64999 -0.360657 -0.916449
upperback -1.95742 -0.605209 -0.509963
thorax -6.33794 -0.273039 0.0612373
lowerneck -8.31335 -12.7705 -16.8903
upperneck 26.0661 -17.7207 9.2105
head 12.3827 -8.7633 3.55767
rclavicle -1.90088e-015 0
rhumerus -37.3426 10.0394 -89.6258
rradius 33.5424
rwrist 4.57587
rhand -12.9422 12.602
rfingers 7.12502
rthumb 13.1489 -16.9634
lclavicle -1.90088e-015 0
lhumerus -36.6941 -16.1266 92.2066
lradius 43.4997
lwrist 5.83522
lhand -9.6828 13.4394
lfingers 7.12502
lthumb 16.2891 42.7752
rfemur 3.16304 10.9989 18.8803
rtibia 10.4291
rfoot -10.7387 -11.9179
rtoes -3.81453
lfemur 8.01493 -11.7307 -16.4712
ltibia -7.95139e-015
lfoot -5.16278 11.1514
ltoes -11.0967
